<svg xmlns="http://www.w3.org/2000/svg" xmlns:xlink="http://www.w3.org/1999/xlink" width="85" height="120" viewBox="0 0 85 120"><defs><path id="phr7a" d="M1157 2026.17c4.13-.06 7.05 1.7 8.24 5.65 2.44 7.83-2.3 15.7-7.95 15.45-10.35-.57-12.5-21.1-.3-21.1zm-4.07 9.68v-.08c.03.9.04 1.1.12 1.86.43 3.76 2.81 5.82 4.2 5.8l.17.03c3.98-.3 5.76-6 4.7-10.7-.64-2.36-2.54-3.13-4.98-2.93-2.75.18-3.85 1.5-4.15 4.2-.1 1.11-.06 1.82-.06 1.82zm15.06 48.5c1.32 10.4.41 25.37 0 29.1-.2 1.7-2.7 1.7-2.88 0-.4-3.59-1.34-18.75-.01-29.1.21-1.69 2.68-1.69 2.89 0zm-3.78 29.3c-.1.66-.61 1.14-1.23 1.23 0 0-.91.13-2.28.24l-5.01.41c-2.63.22-5.7-.15-7.3-.64-.22-.07-.4-.2-.56-.33-.43-.18-.8-.54-.88-1.12-1.17-7.5-.46-22.74 0-29.1.14-1.77 2.75-1.75 2.88 0 .26 3.46 1.15 18.57.24 27.28a23.8 23.8 0 0 1 5.62-.26c1.12.09 6.19.48 7.3.65.78.12 1.33.85 1.22 1.64zm-17.62-32.44c-1.05.45-2.4.21-3.42-.29-3.48-1.75-3.07-5.32-3.13-8.22-.03-3.32.08-6.65.2-9.97.17-5.3-.17-7.75 1.98-10.67 3.14-4.31 7.66-3.69 10.4-3.59.64.03 1.17.49 1.3 1.09.77 3.58 4.44 3.88 6.6 2.81 1.4-.7 2.42 1.32 1.1 2.05-3.38 1.84-8.15 1.15-10-3.1-2.95.08-7.27.36-7.56 5.89v.22c.4 12.52.43 12.32.31 17.76-.04 1.01-.07 1.24.02 1.7a3.35 3.35 0 0 0 2.1 2.35c.93.3 1 1.6.1 1.97zm28.11-4.22a5.52 5.52 0 0 1-1.71 3.1 4.78 4.78 0 0 1-4.44 1.2 1.08 1.08 0 0 1-.76-1.32c.16-.58.56-.7 1.08-.9.14-.11.4-.25.67-.5a3.06 3.06 0 0 0 1.07-2.19c-.47-15.94 1.15-19.13-.39-22.06a5.58 5.58 0 0 0-4.64-3.06c-.39 0-.88-.14-1.14-.18l-.43-.03c-1.44-.1-1.44-2.24 0-2.33.7-.04 1.14-.23 1.72-.17a9.23 9.23 0 0 1 8.71 7.84c.27 2.2.7 18.66.26 20.6zm-44.96 65.53l-11.93 2.62a1.76 1.76 0 0 1-2.11-2.04l1.88-11.02c.33-1.91 3.2-1.5 2.98.42l-1 8.74 9.71-1.33c1.68-.23 2.1 2.24.47 2.6zm11.5-21.41c0 .35-8.14 9.17-8.38 9.43a55.46 55.46 0 0 1-6.42 5.83 34.32 34.32 0 0 1-3.28 2.28c-.63.37-1.33-.34-.96-.96 0 0 .82-1.4 2.28-3.28a55.6 55.6 0 0 1 5.83-6.42c.23-.22 9.43-8.7 9.43-8.38.99-.77 2.26.51 1.5 1.5zm58 21.93a1.76 1.76 0 0 1-2.03 2.11l-11.15-1.95c-1.66-.29-1.34-2.77.34-2.63l8.91.78-1.47-9.8a1.5 1.5 0 0 1 2.96-.53zm-7.53-4.25a66.5 66.5 0 0 1-9.62-8.23 175.76 175.76 0 0 1-5.87-6.4 64.02 64.02 0 0 1-2.53-3.04 1.09 1.09 0 0 1 1.52-1.52s1.26.97 3.04 2.53c1.8 1.56 4.13 3.68 6.4 5.87a66.44 66.44 0 0 1 8.23 9.62c.51.77-.4 1.68-1.17 1.17zm-74.45-44.72l-1.88-11.04a1.76 1.76 0 0 1 2.11-2.02l11.93 2.63c1.65.36 1.2 2.83-.46 2.6l-9.72-1.33 1 8.74c.22 1.93-2.65 2.33-2.98.42zm5.74-6.44c.38 0 8.25 6.86 8.52 7.12a64.9 64.9 0 0 1 7.39 8.25c.69 1-.53 2.22-1.53 1.53 0 0-1.16-.8-2.72-2.16-4.49-3.75-6.43-6.25-8.22-8.28-.11-.14-4.6-5.46-4.43-5.46-.48-.66.35-1.47 1-1zm61.96-3.26c-.05-.69.43-1.3 1.1-1.42l11.15-1.95a1.76 1.76 0 0 1 2.03 2.07l-2.44 12.06c-.38 1.9-3.25 1.4-2.96-.52l1.47-9.8-8.9.77a1.33 1.33 0 0 1-1.45-1.2zm-9.24 18.63s.8-1.15 2.16-2.71c4.66-5.58 11.5-11.14 13.61-12.69.76-.55 1.7.39 1.15 1.15-1.23 1.7-3.07 3.81-4.44 5.42-.87.96-1.75 2.02-2.7 3.02a71.67 71.67 0 0 1-8.26 7.34c-1 .7-2.22-.53-1.52-1.53z"/></defs><g><g transform="translate(-1115 -2026)"><use fill="#4e2a00" xlink:href="#phr7a"/></g></g></svg>