<svg xmlns="http://www.w3.org/2000/svg" xmlns:xlink="http://www.w3.org/1999/xlink" width="15" height="12" viewBox="0 0 15 12"><defs><path id="qajwa" d="M1338.36 2825.03h-.85a5.96 5.96 0 0 0-8.27-5.5.79.79 0 0 0-.37 1.13l.21.36c.2.35.62.49.98.33a3.97 3.97 0 0 1 5.47 3.68h-1.34c-.5 0-.81.54-.56.97l1.85 3.18c.23.4.8.43 1.07.05l2.33-3.17a.65.65 0 0 0-.52-1.03zm-4.12 4.37l-.21-.37a.78.78 0 0 0-.98-.33 3.97 3.97 0 0 1-5.47-3.67h1.34c.5 0 .81-.54.56-.98l-1.84-3.17a.64.64 0 0 0-1.08-.06l-2.33 3.18a.65.65 0 0 0 .52 1.03h.85a5.96 5.96 0 0 0 8.27 5.49c.44-.2.6-.72.37-1.12z"/></defs><g><g transform="translate(-1324 -2819)"><use fill="#8e11ef" xlink:href="#qajwa"/></g></g></svg>