<svg xmlns="http://www.w3.org/2000/svg" xmlns:xlink="http://www.w3.org/1999/xlink" width="34" height="34" viewBox="0 0 34 34"><defs><path id="z2t1a" d="M595.28 2841v-3.56c4.02-.57 5.5-3.04 5.5-5.37 0-3.54-3.23-4.68-5.83-5.6-1.98-.69-3.8-1.5-3.73-2.73 0-.77.95-1.6 3.04-1.6 1.83 0 3.2.51 3.86.81l1.13-2.44c-.88-.4-2.25-.85-3.97-1v-3.48h-2.7v3.6c-2.75.53-4.05 2.35-4.05 4.03-.2 3.35 3.53 4.65 5.53 5.36 2.74.96 4.03 1.58 4.03 3.05 0 2.44-2.93 2.81-4.67 2.81-1.48 0-3.03-.4-3.68-.8l-1.4 2.3c1 .6 2.63 1.04 4.25 1.16v3.45zm-2.95-31.5c-3.77 0-7.4 1.14-10.49 3.22l1.33-3.87-1.77-.6-2.72 7.9 7.97.73.17-1.87-4.42-.4a16.97 16.97 0 0 1 26.88 13.73 16.9 16.9 0 0 1-5.13 12.13c.05.23 1.37 1.4 1.36 1.3a18.77 18.77 0 0 0 5.64-13.44 18.85 18.85 0 0 0-18.82-18.82z"/></defs><g><g transform="translate(-578 -2808)"><use fill="#8e11ef" xlink:href="#z2t1a"/></g></g></svg>