<svg xmlns="http://www.w3.org/2000/svg" xmlns:xlink="http://www.w3.org/1999/xlink" width="122" height="113" viewBox="0 0 122 113"><defs><path id="idsqa" d="M676.44 2289.34c-1.14 9.07-1.77 11.18-4.74 18.68-5.5 11.06-8.58 14.95-17.24 21.72-.82.66-1.76 1.17-2.64 1.76-1.75 1.21-3.7 2.15-5.61 3.16-9 4.23-16.19 5.53-25.33 5.87-4.4.13-8.7-.05-12.78-.99-13.62-2.8-28.66-14.42-35.28-26-2 .64-3.27 1.08-5.62 1.76a1.28 1.28 0 0 1-.9-2.38c5.05-2.34 12.2-5.21 14.22-6.03-4.15-2.83-8.27-5.7-12.35-8.63-.77 2.54-1.56 5.06-2.35 7.59a273.23 273.23 0 0 1-3.42 10.25 1.14 1.14 0 0 1-2.18-.6 276.6 276.6 0 0 1 2.32-10.56c.85-3.5 1.66-7 2.58-10.47a2 2 0 0 1 3.03-1.16l.06.04c5.96 4.02 11.87 8.11 17.7 12.33l.05.04a2 2 0 0 1-.5 3.51c-2.98 1.07-5.98 2.07-8.98 3.1 8.53 13.35 18.51 19.45 32.58 23.2 6.22 1.6 13.27 3.22 24.15.7 5.85-1.2 14.1-4.59 21.7-10.85a55.01 55.01 0 0 0 6.11-5.94c1-.98 4.18-4.64 5.1-6.1 6.94-10.4 8.02-18.65 8.8-24.2.14-1 1.64-.8 1.52.2zm4.95-35.5c-.35 1.77-.75 3.53-1.15 5.28-.39 1.76-.8 3.51-1.25 5.25-.88 3.5-1.71 7-2.66 10.46a2.01 2.01 0 0 1-3.08 1.13l-.05-.04a579.35 579.35 0 0 1-17.56-12.52l-.06-.04a1.97 1.97 0 0 1 .54-3.45c3.77-1.28 7.78-2.45 9.79-3.12-18.42-29.47-61.83-35.05-85.9-6.09-1.12 1.4-2.31 2.7-3.22 4.13-5.59 7.94-7.74 14.56-9.15 24.08a.75.75 0 0 1-1.49-.22c.98-6.8 1.78-10.59 4.2-16.45 2.93-6.66 6-12.57 13.54-19.74 7.7-7.71 24.81-14.73 38.56-14.5 18.38-.1 35.83 8.86 47.63 27.53 2.02-.58 3.23-.97 5.56-1.58a1.09 1.09 0 0 1 .72 2.03c-4.62 2.1-11.61 4.83-15.36 6.3 4.13 2.85 8.22 5.75 12.28 8.7.78-2.52 1.6-5.03 2.4-7.55a148.7 148.7 0 0 1 1.72-5.12c.59-1.7 1.17-3.4 1.8-5.1a1.14 1.14 0 0 1 2.2.63zm-67 37.09a63.9 63.9 0 0 1-7.97 10.8 79.7 79.7 0 0 1 11.39.29c2.04.25 2.03 3.23 0 3.48-4.28.53-11.63.44-16.02-.04a1.66 1.66 0 0 1-.9-2.92c7.13-7.26 10.37-12.52 12.38-17.05 9.95-24.37-14.88-24.5-10.08-6.98.15.6.5 1.47.71 2.08.57 1.67-1.9 2.6-2.58.97-.28-.69-.6-1.29-.86-2.05-4.84-13.53 6.9-20.44 14.16-15.13 7.17 5.22 4.8 17.64-.22 26.55zm12.9-1.54c5.09-.28 7.32-.13 9.33-.04l.32-25.56a1.6 1.6 0 0 1 3.2 0l.33 25.81c.88.09 1.75.19 2.63.33 1.6.27 1.6 2.58 0 2.85-.86.14-1.72.24-2.58.33l.13 10.72a2.11 2.11 0 1 1-4.22.05l.13-10.52a84 84 0 0 1-12.05-.2 1.91 1.91 0 0 1-1.67-2.46c.6-2.03 1.25-4.02 1.8-6.04 2.42-9 2.24-15.57 2.44-18.6.1-1.63 2.46-1.76 2.75-.15a42.55 42.55 0 0 1-2.54 23.48z"/></defs><g><g transform="translate(-560 -2228)"><use fill="#4e2a00" xlink:href="#idsqa"/></g></g></svg>