<svg xmlns="http://www.w3.org/2000/svg" xmlns:xlink="http://www.w3.org/1999/xlink" width="91" height="119" viewBox="0 0 91 119"><defs><path id="zd1za" d="M1187.35 2338.17a1.71 1.71 0 0 1-3.36 0c-.79-4.42-1.1-24.58.21-29.39a1.52 1.52 0 0 1 2.94 0c1.32 4.84 1 24.95.21 29.39zm-11.38-37.1c5.29.24 8.81.56 8.81.56a1.3 1.3 0 0 1 0 2.6s-3.52.32-8.8.56c-33.14 1.45-47.58-.55-47.58-.55-1.5-.22-1.5-2.4 0-2.61 10.57-1.49 37-1.02 47.57-.55zm-48.49 39.34a1.79 1.79 0 0 1-1.58-1.58s-.2-1.86-.34-4.65c-.22-4.87-.47-19.94.46-25.13.33-1.85 2.99-1.84 3.32 0 .95 5.36.65 20.77.46 25.13-.14 2.8-.35 4.65-.35 4.65-.1.98-1 1.69-1.97 1.58zm58.78 4.3a1.6 1.6 0 0 1-1.48 1.48c-10.83.83-45.93 1.18-56.38-.31-1.47-.21-1.47-2.35 0-2.56 10.38-1.5 45.38-1.16 56.38-.32a1.6 1.6 0 0 1 1.48 1.72zm-44.25-110.1c6.58-9.64 24.2-7.58 27.34-1.9a1.8 1.8 0 0 1-1.97 2.61c-.49-.11-.77-.17-1.44-.5-2.12-.73-3.16-1.96-7.75-2.27-11.33-.68-15.21 4.7-16.36 15.08-.08 2.12-.28 4.63.32 7.62 3.17 16.58 17.23 22.69 25.48 9.06 2.05-3.45 3.2-7.69 3.45-11.23.15-1.03.11-2.47.14-3.38-.05-1.05-.05-2.05-.18-2.95-.17-.9-.37-1.7-.46-2.43-.3-1.31-.25-2.43-.3-3.4.03-.9.19-1.44.19-1.44a1.5 1.5 0 0 1 2.32-.78s.45.33 1.02 1.04c.59.64 1.12 2 1.47 3.82.18 1.73.13 3.8.21 6.12-.05 1.33-.02 2.27-.2 3.72-.69 7.87-4.84 16.96-11.94 20.56-2.74 1.48-4.55 1.5-6.66 1.68-18.15-.63-22.72-30.13-14.68-41.04zm60.92 91.5c-.13 4.34-6.8 7.8-8.92 8.56-1.2.47-2.2-1.01-1.33-1.95 1.2-1.28 5.3-4.65 6-5.96.14-.22.14-.45.16-.3.14-2.2-1.38-10.34-1.85-12.6-3.38-17-3.03-14.95-5.86-24.4l-.1-.16c-.04-.2-.38-.51-.6-.8-4-3.83-15.45-6.91-17.72-7.8a18.42 18.42 0 0 1-2.94-1.43 1.05 1.05 0 0 1 .41-1.92c3-.33 6.96.71 11.76 2.3 3.78 1.26 11.14 3.95 12.93 7.63l.33.65c3.62 10.47 6.69 27.28 7.24 31.46.44 2.3.39 4.6.5 6.72zm-74.1-41.2a22.26 22.26 0 0 0-4.78 3.15c-.37.3-.53.6-.8.89-.82 2.18.71-2.38-1.48 4.27-2.16 6.94-.26-.65-3.85 14.05-.13.22-1.1 7.45-1.16 11.84 0 .28-.38 7.86-.14 7.73.06.02.32.6.7 1.04.85 1.04 3.56 3.5 4.64 4.65.88.93-.12 2.42-1.32 1.96a23.04 23.04 0 0 1-2.99-1.56c-2.57-1.7-4.56-3.29-5.14-6.29-.04-.21-.04-.38-.06-.63-.38-15.72.9-21.78 6.25-37.45 1.72-6.89 21-12.88 25.34-12.27 1.11.18 1.23 1.43.47 1.92-3.55 2.26-8.78 3-15.69 6.7zm39.34-2.34s-.2.35-.6.96a13.51 13.51 0 0 1-5.67 4.91c-6.13 2.72-13.18-.29-16.41-6.22-.47-.86.51-1.8 1.35-1.28 2.12 1.32 3.63 2.5 6.3 3.4.58.24 1.2.33 1.8.5 4.04.58 6.33-.22 11.26-3.91 1.38-.94 2.61.52 1.97 1.64z"/></defs><g><g transform="translate(-1112 -2228)"><use fill="#4e2a00" xlink:href="#zd1za"/></g></g></svg>