<svg xmlns="http://www.w3.org/2000/svg" xmlns:xlink="http://www.w3.org/1999/xlink" width="122" height="113" viewBox="0 0 122 113"><defs><path id="kym1a" d="M676.44 2087.34c-1.14 9.07-1.77 11.18-4.74 18.68-5.5 11.06-8.58 14.95-17.24 21.72-.82.66-1.76 1.17-2.64 1.76-1.75 1.21-3.7 2.15-5.61 3.16-9 4.23-16.19 5.53-25.33 5.87-4.4.13-8.7-.05-12.78-.99-13.62-2.8-28.66-14.42-35.28-26-2 .64-3.27 1.08-5.62 1.76a1.28 1.28 0 0 1-.9-2.38c5.05-2.34 12.2-5.21 14.22-6.03-4.15-2.83-8.27-5.7-12.35-8.63-.77 2.54-1.56 5.06-2.35 7.59a273.23 273.23 0 0 1-3.42 10.25 1.14 1.14 0 0 1-2.18-.6 276.6 276.6 0 0 1 2.32-10.56c.85-3.5 1.66-7 2.58-10.47a2 2 0 0 1 3.03-1.16l.06.04c5.96 4.02 11.87 8.11 17.7 12.33l.05.04a2 2 0 0 1-.5 3.51c-2.98 1.07-5.98 2.07-8.98 3.1 8.53 13.35 18.51 19.45 32.58 23.2 6.22 1.6 13.27 3.22 24.15.7 5.85-1.2 14.1-4.59 21.7-10.85a55.01 55.01 0 0 0 6.11-5.94c1-.98 4.18-4.64 5.1-6.1 6.94-10.4 8.02-18.65 8.8-24.2.14-1 1.64-.8 1.52.2zm4.95-35.5c-.35 1.77-.75 3.53-1.15 5.28-.39 1.76-.8 3.51-1.25 5.25-.88 3.5-1.71 7-2.66 10.46a2.01 2.01 0 0 1-3.08 1.13l-.05-.04a579.35 579.35 0 0 1-17.56-12.52l-.06-.04a1.97 1.97 0 0 1 .54-3.45c3.77-1.28 7.78-2.45 9.79-3.12-18.42-29.47-61.83-35.05-85.9-6.09-1.12 1.4-2.31 2.7-3.22 4.13-5.59 7.94-7.74 14.56-9.15 24.08a.75.75 0 0 1-1.49-.22c.98-6.8 1.78-10.59 4.2-16.45 2.93-6.66 6-12.57 13.54-19.74 7.7-7.71 24.81-14.73 38.56-14.5 18.38-.1 35.83 8.86 47.63 27.53 2.02-.58 3.23-.97 5.56-1.58a1.09 1.09 0 0 1 .72 2.03c-4.62 2.1-11.61 4.83-15.36 6.3 4.13 2.85 8.22 5.75 12.28 8.7.78-2.52 1.6-5.03 2.4-7.55.54-1.72 1.12-3.42 1.72-5.12.59-1.7 1.17-3.4 1.8-5.1a1.14 1.14 0 0 1 2.2.63zm-68.92 16.68c-3.3 3.12-2.5 8.22 6.4 10.45 3.68.8 8.94 1.65 12.82 5.55 6.84 6.45 2.38 18.19-9.06 19.6l-.54 5.71c-.24 2.43-3.8 2.43-4.04 0l-.55-5.8c-4.36-.67-7.6-2.56-10.64-5.08-1.38-1.14-.04-3.33 1.6-2.63 3.81 1.62 8.05 3.46 12.52 3.03 7.92-.66 11.39-7.31 7.31-11.57-2.37-2.57-5.9-3.43-8.25-4.07l-2.13-.5c-17.25-4.26-13.58-19.97-.4-21.9l.46-5.65c.21-2.57 4-2.56 4.2 0l.46 5.6c3.25.35 6.62 1.75 8.92 3.42 1.42 1.04.33 3.28-1.36 2.82-5.46-1.68-13.15-3.32-17.72 1.02z"/></defs><g><g transform="translate(-560 -2026)"><use fill="#4e2a00" xlink:href="#kym1a"/></g></g></svg>