<svg xmlns="http://www.w3.org/2000/svg" xmlns:xlink="http://www.w3.org/1999/xlink" width="97" height="16" viewBox="0 0 97 16"><defs><path id="s01ca" d="M797.62 3165.74l-4.49-.65a1.72 1.72 0 0 1-1.15-.82l-2.07-4.02c-.19-.4-.6-.34-.79.06l-2.06 3.96c-.2.39-.71.76-1.15.82l-4.38.68c-.44.06-.61.5-.3.8l3.16 3.1c.32.31.52.91.44 1.35l-.74 4.46c-.07.43.25.67.65.46l4.07-2.09c.4-.2 1.03-.2 1.42 0l3.95 2.06c.4.2.8-.06.74-.49l-.71-4.4c-.08-.44.12-1.04.44-1.34l3.18-3.19c.32-.3.23-.69-.2-.75z"/><path id="s01cb" d="M817.62 3165.74l-4.49-.65a1.72 1.72 0 0 1-1.16-.82l-2.06-4.02c-.19-.4-.6-.34-.79.06l-2.06 3.96c-.2.39-.71.76-1.15.82l-4.38.68c-.44.06-.61.5-.3.8l3.16 3.1c.32.31.52.91.44 1.35l-.74 4.46c-.07.43.25.67.65.46l4.07-2.09c.4-.2 1.03-.2 1.42 0l3.95 2.06c.4.2.8-.06.74-.49l-.71-4.4c-.08-.44.12-1.04.44-1.34l3.18-3.19c.32-.3.23-.69-.2-.75z"/><path id="s01cc" d="M837.62 3165.74l-4.49-.65a1.72 1.72 0 0 1-1.16-.82l-2.05-4.02c-.2-.4-.6-.34-.8.06l-2.06 3.96c-.2.39-.71.76-1.15.82l-4.38.68c-.44.06-.61.5-.3.8l3.16 3.1c.32.31.52.91.44 1.35l-.74 4.46c-.07.43.25.67.65.46l4.07-2.09c.4-.2 1.03-.2 1.42 0l3.95 2.06c.4.2.8-.06.74-.49l-.71-4.4c-.08-.44.12-1.04.44-1.34l3.18-3.19c.32-.3.23-.69-.2-.75z"/><path id="s01cd" d="M857.62 3165.74l-4.49-.65a1.72 1.72 0 0 1-1.16-.82l-2.06-4.02c-.19-.4-.6-.34-.79.06l-2.06 3.96c-.2.39-.71.76-1.15.82l-4.38.68c-.44.06-.61.5-.3.8l3.16 3.1c.32.31.52.91.44 1.35l-.74 4.46c-.07.43.25.67.65.46l4.07-2.09c.4-.2 1.03-.2 1.42 0l3.95 2.06c.4.2.8-.06.74-.49l-.71-4.4c-.08-.44.12-1.04.44-1.34l3.18-3.19c.32-.3.23-.69-.2-.75z"/><path id="s01ce" d="M877.62 3165.74l-4.49-.65a1.72 1.72 0 0 1-1.16-.82l-2.06-4.02c-.19-.4-.6-.34-.79.06l-2.06 3.96c-.2.39-.71.76-1.15.82l-4.38.68c-.44.06-.61.5-.3.8l3.16 3.1c.32.31.52.91.44 1.35l-.74 4.46c-.07.43.25.67.65.46l4.07-2.09c.4-.2 1.03-.2 1.42 0l3.95 2.06c.4.2.8-.06.74-.49l-.71-4.4c-.08-.44.12-1.04.44-1.34l3.18-3.19c.32-.3.23-.69-.2-.75z"/><clipPath id="s01cf"><use fill="#fff" xlink:href="#s01ca"/></clipPath><clipPath id="s01cg"><use fill="#fff" xlink:href="#s01cb"/></clipPath><clipPath id="s01ch"><use fill="#fff" xlink:href="#s01cc"/></clipPath><clipPath id="s01ci"><use fill="#fff" xlink:href="#s01cd"/></clipPath><clipPath id="s01cj"><use fill="#fff" xlink:href="#s01ce"/></clipPath></defs><g><g transform="translate(-781 -3160)"><g><use fill="#ffb800" xlink:href="#s01ca"/><use fill="#fff" fill-opacity="0" stroke="#d29a00" stroke-linecap="round" stroke-linejoin="round" stroke-miterlimit="50" stroke-width="2" clip-path="url(&quot;#s01cf&quot;)" xlink:href="#s01ca"/></g><g><use fill="#ffb800" xlink:href="#s01cb"/><use fill="#fff" fill-opacity="0" stroke="#d29a00" stroke-linecap="round" stroke-linejoin="round" stroke-miterlimit="50" stroke-width="2" clip-path="url(&quot;#s01cg&quot;)" xlink:href="#s01cb"/></g><g><use fill="#ffb800" xlink:href="#s01cc"/><use fill="#fff" fill-opacity="0" stroke="#d29a00" stroke-linecap="round" stroke-linejoin="round" stroke-miterlimit="50" stroke-width="2" clip-path="url(&quot;#s01ch&quot;)" xlink:href="#s01cc"/></g><g><use fill="#ffb800" xlink:href="#s01cd"/><use fill="#fff" fill-opacity="0" stroke="#d29a00" stroke-linecap="round" stroke-linejoin="round" stroke-miterlimit="50" stroke-width="2" clip-path="url(&quot;#s01ci&quot;)" xlink:href="#s01cd"/></g><g><use fill="#e8e8e8" xlink:href="#s01ce"/><use fill="#fff" fill-opacity="0" stroke="#ccc" stroke-linecap="round" stroke-linejoin="round" stroke-miterlimit="50" stroke-width="2" clip-path="url(&quot;#s01cj&quot;)" xlink:href="#s01ce"/></g></g></g></svg>