<svg xmlns="http://www.w3.org/2000/svg" xmlns:xlink="http://www.w3.org/1999/xlink" width="97" height="16" viewBox="0 0 97 16"><defs><path id="get8a" d="M805.62 2171.74l-4.49-.65a1.72 1.72 0 0 1-1.16-.82l-2.06-4.02c-.19-.4-.6-.34-.79.06l-2.06 3.96c-.2.39-.71.76-1.15.82l-4.38.68c-.44.06-.61.5-.3.8l3.16 3.1c.32.31.52.91.44 1.35l-.74 4.46c-.07.43.25.67.65.46l4.07-2.09c.4-.2 1.03-.2 1.42 0l3.95 2.06c.4.2.8-.06.74-.49l-.71-4.4c-.08-.44.12-1.04.44-1.34l3.18-3.19c.32-.3.23-.69-.2-.75z"/><path id="get8b" d="M825.62 2171.74l-4.49-.65a1.72 1.72 0 0 1-1.16-.82l-2.06-4.02c-.19-.4-.6-.34-.79.06l-2.06 3.96c-.2.39-.71.76-1.15.82l-4.38.68c-.44.06-.61.5-.3.8l3.16 3.1c.32.31.52.91.44 1.35l-.74 4.46c-.07.43.25.67.65.46l4.07-2.09c.4-.2 1.03-.2 1.42 0l3.95 2.06c.4.2.8-.06.74-.49l-.71-4.4c-.08-.44.12-1.04.44-1.34l3.18-3.19c.32-.3.23-.69-.2-.75z"/><path id="get8c" d="M845.62 2171.74l-4.49-.65a1.72 1.72 0 0 1-1.16-.82l-2.06-4.02c-.19-.4-.6-.34-.79.06l-2.06 3.96c-.2.39-.71.76-1.15.82l-4.38.68c-.44.06-.61.5-.3.8l3.16 3.1c.32.31.52.91.44 1.35l-.74 4.46c-.07.43.25.67.65.46l4.07-2.09c.4-.2 1.03-.2 1.42 0l3.95 2.06c.4.2.8-.06.74-.49l-.71-4.4c-.08-.44.12-1.04.44-1.34l3.18-3.19c.32-.3.23-.69-.2-.75z"/><path id="get8d" d="M865.62 2171.74l-4.49-.65a1.72 1.72 0 0 1-1.16-.82l-2.06-4.02c-.19-.4-.6-.34-.79.06l-2.06 3.96c-.2.39-.71.76-1.15.82l-4.38.68c-.44.06-.61.5-.3.8l3.16 3.1c.32.31.52.91.44 1.35l-.74 4.46c-.07.43.25.67.65.46l4.07-2.09c.4-.2 1.03-.2 1.42 0l3.95 2.06c.4.2.8-.06.74-.49l-.71-4.4c-.08-.44.12-1.04.44-1.34l3.18-3.19c.32-.3.23-.69-.2-.75z"/><path id="get8e" d="M885.62 2171.74l-4.49-.65a1.72 1.72 0 0 1-1.16-.82l-2.06-4.02c-.19-.4-.6-.34-.79.06l-2.06 3.96c-.2.39-.71.76-1.15.82l-4.38.68c-.44.06-.61.5-.3.8l3.16 3.1c.32.31.52.91.44 1.35l-.74 4.46c-.07.43.25.67.65.46l4.07-2.09c.4-.2 1.03-.2 1.42 0l3.95 2.06c.4.2.8-.06.74-.49l-.71-4.4c-.08-.44.12-1.04.44-1.34l3.18-3.19c.32-.3.23-.69-.2-.75z"/><clipPath id="get8f"><use fill="#fff" xlink:href="#get8a"/></clipPath><clipPath id="get8g"><use fill="#fff" xlink:href="#get8b"/></clipPath><clipPath id="get8h"><use fill="#fff" xlink:href="#get8c"/></clipPath><clipPath id="get8i"><use fill="#fff" xlink:href="#get8d"/></clipPath><clipPath id="get8j"><use fill="#fff" xlink:href="#get8e"/></clipPath></defs><g><g transform="translate(-789 -2166)"><g><use fill="#ffb800" xlink:href="#get8a"/><use fill="#fff" fill-opacity="0" stroke="#d29a00" stroke-linecap="round" stroke-linejoin="round" stroke-miterlimit="50" stroke-width="2" clip-path="url(&quot;#get8f&quot;)" xlink:href="#get8a"/></g><g><use fill="#ffb800" xlink:href="#get8b"/><use fill="#fff" fill-opacity="0" stroke="#d29a00" stroke-linecap="round" stroke-linejoin="round" stroke-miterlimit="50" stroke-width="2" clip-path="url(&quot;#get8g&quot;)" xlink:href="#get8b"/></g><g><use fill="#ffb800" xlink:href="#get8c"/><use fill="#fff" fill-opacity="0" stroke="#d29a00" stroke-linecap="round" stroke-linejoin="round" stroke-miterlimit="50" stroke-width="2" clip-path="url(&quot;#get8h&quot;)" xlink:href="#get8c"/></g><g><use fill="#ffb800" xlink:href="#get8d"/><use fill="#fff" fill-opacity="0" stroke="#d29a00" stroke-linecap="round" stroke-linejoin="round" stroke-miterlimit="50" stroke-width="2" clip-path="url(&quot;#get8i&quot;)" xlink:href="#get8d"/></g><g><use fill="#ffb800" xlink:href="#get8e"/><use fill="#fff" fill-opacity="0" stroke="#d29a00" stroke-linecap="round" stroke-linejoin="round" stroke-miterlimit="50" stroke-width="2" clip-path="url(&quot;#get8j&quot;)" xlink:href="#get8e"/></g></g></g></svg>